<?xml version="1.0" standalone="no"?>
<!DOCTYPE svg PUBLIC "-//W3C//DTD SVG 20010904//EN"
 "http://www.w3.org/TR/2001/REC-SVG-20010904/DTD/svg10.dtd">
<svg version="1.0" xmlns="http://www.w3.org/2000/svg"
 width="165.000000pt" height="700.000000pt" viewBox="0 0 165.000000 700.000000"
 preserveAspectRatio="xMidYMid meet">

<g transform="translate(0.000000,700.000000) scale(0.100000,-0.100000)"
fill="#000000" stroke="none">
<path d="M790 4140 c0 -393 -1 -420 -17 -420 -17 -1 -17 -1 0 -11 9 -5 17 -21
17 -34 0 -22 -4 -25 -37 -25 -28 0 -34 -3 -23 -10 8 -5 26 -10 40 -11 23 -1
22 -2 -5 -8 l-30 -7 28 -7 c20 -6 27 -14 27 -32 0 -21 -5 -25 -32 -25 -25 0
-29 -3 -20 -12 7 -7 12 -25 12 -40 0 -27 -1 -28 -55 -28 l-54 0 6 -51 6 -51
-31 7 c-28 6 -32 4 -32 -13 0 -11 6 -22 14 -25 8 -3 18 -26 21 -51 4 -25 11
-46 16 -46 5 0 9 -9 9 -19 0 -10 7 -21 15 -25 8 -3 12 -12 9 -20 -3 -9 9 -30
31 -52 l37 -37 -6 -391 c-4 -215 -9 -465 -11 -556 -2 -91 -7 -379 -11 -640 -4
-261 -8 -488 -9 -505 -2 -16 -3 -90 -4 -162 l-1 -133 -77 0 c-76 0 -76 0 -58
-20 18 -20 18 -20 -13 -14 -35 7 -40 -2 -17 -32 8 -10 15 -38 15 -61 0 -43 14
-58 23 -25 4 16 5 16 6 0 1 -17 19 -18 226 -18 l225 0 1 23 c1 12 1 29 0 38
-1 8 13 28 31 45 l33 29 -28 3 c-19 2 -27 8 -23 17 4 11 -10 15 -62 17 l-67 3
-1 35 c0 19 -4 235 -7 480 -4 245 -9 504 -12 575 -3 72 -7 330 -10 575 -3 245
-8 504 -11 576 l-6 130 36 39 c20 21 36 44 36 52 0 14 16 46 36 73 7 8 15 31
19 50 4 19 14 43 22 52 22 24 7 40 -29 32 l-31 -6 6 51 6 51 -56 0 -56 0 6 39
c4 35 2 40 -17 43 -13 2 -22 11 -24 24 -2 16 4 24 25 29 l28 8 -30 7 c-30 8
-30 8 -3 9 38 1 46 21 9 21 -26 0 -31 4 -31 25 0 13 8 29 18 34 16 10 16 10 0
11 -17 0 -18 24 -18 368 0 365 -5 472 -21 472 -5 0 -9 -189 -9 -420z m-213
-3552 c-3 -7 -5 -2 -5 12 0 14 2 19 5 13 2 -7 2 -19 0 -25z"/>
</g>
</svg>
